<svg width="358" height="500" viewBox="0 0 358 500" fill="none" xmlns="http://www.w3.org/2000/svg">
<path d="M9.62836 310V225.438H25.8041V239.131H26.1245C27.6726 234.486 30.1017 230.883 33.4116 228.32C36.7748 225.704 41.1524 224.396 46.5444 224.396C47.8256 224.396 49.0001 224.45 50.0678 224.557C51.1355 224.663 52.0164 224.743 52.7104 224.797V240.572C52.0698 240.412 50.922 240.252 49.267 240.092C47.6121 239.878 45.797 239.771 43.8217 239.771C39.0704 239.771 34.9864 241.426 31.5698 244.736C28.2065 248.046 26.5248 253.145 26.5248 260.031V310H9.62836ZM92.6726 311.682C86.907 311.682 81.7019 310.427 77.0573 307.918C72.4662 305.355 68.8093 301.592 66.0866 296.627C63.4174 291.662 62.0827 285.496 62.0827 278.129V225.438H78.9792V276.047C78.9792 282.827 80.6075 287.952 83.864 291.422C87.1205 294.839 91.6849 296.547 97.5573 296.547C103.27 296.547 108.074 294.785 111.971 291.262C115.922 287.685 117.897 281.973 117.897 274.125V225.438H134.794V310H118.217V297.268C112.452 306.877 103.937 311.682 92.6726 311.682ZM191.332 225.438V239.371H174.195V287.658C174.195 290.808 174.836 292.997 176.117 294.225C177.398 295.452 179.721 296.066 183.084 296.066H191.332V310H180.682C165.04 310 157.219 303.273 157.219 289.82V239.371H142.324V225.438H157.219V202.375H174.195V225.438H191.332ZM229.292 311.361C220.857 311.361 213.864 309.226 208.312 304.955C202.76 300.631 199.984 294.251 199.984 285.816C199.984 279.41 201.559 274.499 204.708 271.082C207.911 267.612 212.049 265.13 217.12 263.635C222.245 262.14 227.664 261.046 233.376 260.352C238.661 259.711 242.852 259.177 245.949 258.75C249.045 258.323 251.234 257.682 252.515 256.828C253.85 255.974 254.517 254.506 254.517 252.424V251.703C254.517 247.592 253.022 244.229 250.033 241.613C247.043 238.944 242.852 237.609 237.46 237.609C232.068 237.609 227.664 238.917 224.247 241.533C220.831 244.096 218.962 247.326 218.642 251.223H202.066C202.439 243.161 205.829 236.568 212.236 231.443C218.642 226.318 227.13 223.756 237.7 223.756C248.111 223.756 256.305 226.318 262.284 231.443C268.264 236.568 271.253 243.428 271.253 252.023V310H254.597V297.988H254.277C252.515 301.405 249.712 304.501 245.868 307.277C242.078 310 236.553 311.361 229.292 311.361ZM232.736 297.748C240.21 297.748 245.708 295.826 249.232 291.982C252.809 288.085 254.597 283.548 254.597 278.369V268.439C253.476 269.347 250.94 270.174 246.99 270.922C243.039 271.616 238.822 272.283 234.337 272.924C229.693 273.618 225.609 274.926 222.085 276.848C218.562 278.77 216.8 281.866 216.8 286.137C216.8 289.767 218.215 292.623 221.044 294.705C223.927 296.734 227.824 297.748 232.736 297.748ZM318.342 312.002C311.883 312.002 306.064 310.961 300.885 308.879C295.707 306.797 291.516 303.701 288.313 299.59C285.163 295.479 283.402 290.381 283.028 284.295H299.684C300.645 293.798 306.758 298.549 318.022 298.549C323.361 298.549 327.578 297.454 330.674 295.266C333.824 293.077 335.399 290.301 335.399 286.938C335.399 284.055 334.278 281.759 332.036 280.051C329.794 278.289 326.857 277.008 323.227 276.207L309.213 273.084C293.038 269.561 284.95 261.499 284.95 248.9C284.95 241.426 287.913 235.34 293.838 230.643C299.818 225.945 307.639 223.596 317.301 223.596C326.857 223.596 334.705 226.078 340.844 231.043C347.037 235.954 350.24 242.681 350.454 251.223H334.278C334.225 247.112 332.676 243.722 329.633 241.053C326.59 238.33 322.56 236.969 317.542 236.969C312.737 236.969 308.92 238.09 306.09 240.332C303.261 242.574 301.846 245.324 301.846 248.58C301.846 251.463 302.914 253.785 305.049 255.547C307.238 257.309 310.228 258.617 314.018 259.471L328.432 262.674C336.654 264.489 342.713 267.292 346.61 271.082C350.507 274.872 352.456 279.837 352.456 285.977C352.456 291.368 350.961 296.013 347.971 299.91C345.035 303.754 341.004 306.743 335.879 308.879C330.754 310.961 324.909 312.002 318.342 312.002Z" fill="black"/>
<path d="M51.1289 340V329.688H54.2246L56.5586 335.244C56.7279 335.674 56.8809 336.094 57.0176 336.504C57.1543 336.908 57.291 337.298 57.4277 337.676C57.5579 337.298 57.6914 336.908 57.8281 336.504C57.9648 336.094 58.1178 335.674 58.2871 335.244L60.6016 329.688H63.6973V340H61.6562V335.244C61.6562 334.521 61.6595 333.893 61.666 333.359C61.6725 332.819 61.679 332.285 61.6855 331.758C61.4772 332.305 61.2656 332.861 61.0508 333.428C60.8424 333.988 60.6081 334.59 60.3477 335.234L58.2969 340H56.5293L54.4688 335.234C54.2083 334.609 53.9707 334.023 53.7559 333.477C53.5475 332.923 53.3424 332.383 53.1406 331.855C53.1471 332.363 53.1536 332.881 53.1602 333.408C53.1667 333.929 53.1699 334.541 53.1699 335.244V340H51.1289ZM70.4355 340.234C69.4134 340.234 68.5345 340.003 67.7988 339.541C67.0697 339.079 66.5065 338.444 66.1094 337.637C65.7188 336.823 65.5234 335.898 65.5234 334.863C65.5234 333.815 65.7285 332.884 66.1387 332.07C66.5488 331.257 67.1152 330.618 67.8379 330.156C68.5605 329.688 69.3906 329.453 70.3281 329.453C71.3047 329.453 72.151 329.681 72.8672 330.137C73.5898 330.592 74.1497 331.227 74.5469 332.041C74.944 332.848 75.1426 333.783 75.1426 334.844V335.4H67.5547C67.5938 336.331 67.8607 337.083 68.3555 337.656C68.8568 338.229 69.5599 338.516 70.4648 338.516C71.1419 338.516 71.6986 338.363 72.1348 338.057C72.571 337.751 72.8607 337.354 73.0039 336.865H74.9863C74.8626 337.529 74.5859 338.115 74.1562 338.623C73.7331 339.131 73.1992 339.528 72.5547 339.814C71.9167 340.094 71.2103 340.234 70.4355 340.234ZM67.5742 333.838H73.1309C73.0462 333.018 72.7565 332.37 72.2617 331.895C71.7669 331.413 71.1289 331.172 70.3477 331.172C69.5664 331.172 68.9284 331.413 68.4336 331.895C67.9453 332.37 67.6589 333.018 67.5742 333.838ZM75.9824 343.145V338.154H76.8613C77.1608 337.881 77.4049 337.559 77.5938 337.188C77.7826 336.81 77.9355 336.335 78.0527 335.762C78.1699 335.189 78.2676 334.463 78.3457 333.584L78.6875 329.688H86.0508V338.154H87.7207V343.145H85.6992V340H78.0332V343.145H75.9824ZM79.1074 338.154H84.0391V331.514H80.5137L80.3086 333.584C80.2174 334.626 80.084 335.527 79.9082 336.289C79.7389 337.051 79.472 337.673 79.1074 338.154ZM98.1895 340H96.1387V332.803H96.1191L91.0703 340H89.1367V329.688H91.1875V336.885H91.207L96.2461 329.688H98.1895V340ZM103.668 340.166C102.639 340.166 101.786 339.906 101.109 339.385C100.432 338.857 100.094 338.079 100.094 337.051C100.094 336.27 100.286 335.671 100.67 335.254C101.061 334.831 101.565 334.528 102.184 334.346C102.809 334.163 103.469 334.03 104.166 333.945C104.811 333.867 105.322 333.802 105.699 333.75C106.077 333.698 106.344 333.62 106.5 333.516C106.663 333.411 106.744 333.232 106.744 332.979V332.891C106.744 332.389 106.562 331.979 106.197 331.66C105.833 331.335 105.322 331.172 104.664 331.172C104.007 331.172 103.469 331.331 103.053 331.65C102.636 331.963 102.408 332.357 102.369 332.832H100.348C100.393 331.849 100.807 331.045 101.588 330.42C102.369 329.795 103.404 329.482 104.693 329.482C105.963 329.482 106.962 329.795 107.691 330.42C108.421 331.045 108.785 331.882 108.785 332.93V340H106.754V338.535H106.715C106.5 338.952 106.158 339.329 105.689 339.668C105.227 340 104.553 340.166 103.668 340.166ZM104.088 338.506C104.999 338.506 105.67 338.271 106.1 337.803C106.536 337.327 106.754 336.774 106.754 336.143V334.932C106.617 335.042 106.308 335.143 105.826 335.234C105.344 335.319 104.83 335.4 104.283 335.479C103.717 335.563 103.219 335.723 102.789 335.957C102.359 336.191 102.145 336.569 102.145 337.09C102.145 337.533 102.317 337.881 102.662 338.135C103.014 338.382 103.489 338.506 104.088 338.506ZM117.516 333.223V335.039H111.061V333.223H117.516ZM124.215 340.234C123.232 340.234 122.369 340.007 121.627 339.551C120.891 339.095 120.318 338.464 119.908 337.656C119.498 336.842 119.293 335.911 119.293 334.863C119.293 333.802 119.498 332.865 119.908 332.051C120.325 331.237 120.901 330.602 121.637 330.146C122.372 329.684 123.232 329.453 124.215 329.453C125.035 329.453 125.768 329.616 126.412 329.941C127.063 330.26 127.59 330.703 127.994 331.27C128.398 331.836 128.642 332.484 128.727 333.213H126.676C126.572 332.633 126.311 332.158 125.895 331.787C125.478 331.416 124.921 331.23 124.225 331.23C123.333 331.23 122.636 331.559 122.135 332.217C121.633 332.874 121.383 333.757 121.383 334.863C121.383 335.957 121.633 336.829 122.135 337.48C122.636 338.132 123.333 338.457 124.225 338.457C124.934 338.457 125.481 338.278 125.865 337.92C126.249 337.555 126.51 337.07 126.646 336.465H128.727C128.648 337.181 128.408 337.826 128.004 338.398C127.6 338.965 127.073 339.414 126.422 339.746C125.771 340.072 125.035 340.234 124.215 340.234ZM134.889 340.234C133.867 340.234 132.988 340.003 132.252 339.541C131.523 339.079 130.96 338.444 130.562 337.637C130.172 336.823 129.977 335.898 129.977 334.863C129.977 333.815 130.182 332.884 130.592 332.07C131.002 331.257 131.568 330.618 132.291 330.156C133.014 329.688 133.844 329.453 134.781 329.453C135.758 329.453 136.604 329.681 137.32 330.137C138.043 330.592 138.603 331.227 139 332.041C139.397 332.848 139.596 333.783 139.596 334.844V335.4H132.008C132.047 336.331 132.314 337.083 132.809 337.656C133.31 338.229 134.013 338.516 134.918 338.516C135.595 338.516 136.152 338.363 136.588 338.057C137.024 337.751 137.314 337.354 137.457 336.865H139.439C139.316 337.529 139.039 338.115 138.609 338.623C138.186 339.131 137.652 339.528 137.008 339.814C136.37 340.094 135.663 340.234 134.889 340.234ZM132.027 333.838H137.584C137.499 333.018 137.21 332.37 136.715 331.895C136.22 331.413 135.582 331.172 134.801 331.172C134.02 331.172 133.382 331.413 132.887 331.895C132.398 332.37 132.112 333.018 132.027 333.838ZM141.383 344.082V329.688H143.404V331.172H143.434C143.759 330.605 144.205 330.182 144.771 329.902C145.338 329.622 145.956 329.482 146.627 329.482C147.512 329.482 148.29 329.71 148.961 330.166C149.632 330.615 150.152 331.243 150.523 332.051C150.901 332.852 151.09 333.783 151.09 334.844C151.09 335.905 150.904 336.839 150.533 337.646C150.162 338.447 149.641 339.076 148.971 339.531C148.3 339.98 147.516 340.205 146.617 340.205C145.947 340.205 145.341 340.059 144.801 339.766C144.26 339.473 143.818 339.033 143.473 338.447H143.443V344.082H141.383ZM146.197 338.428C147.031 338.428 147.704 338.122 148.219 337.51C148.74 336.898 149 336.009 149 334.844C149 333.678 148.74 332.79 148.219 332.178C147.704 331.559 147.031 331.25 146.197 331.25C145.318 331.25 144.615 331.579 144.088 332.236C143.567 332.887 143.307 333.757 143.307 334.844C143.307 335.924 143.567 336.794 144.088 337.451C144.615 338.102 145.318 338.428 146.197 338.428ZM152.906 340V329.688H157.281C158.512 329.688 159.485 329.919 160.201 330.381C160.917 330.843 161.275 331.523 161.275 332.422C161.275 333.027 161.103 333.512 160.758 333.877C160.419 334.235 159.944 334.469 159.332 334.58C160.003 334.665 160.559 334.915 161.002 335.332C161.451 335.742 161.676 336.325 161.676 337.08C161.676 337.965 161.357 338.675 160.719 339.209C160.081 339.736 159.169 340 157.984 340H152.906ZM154.859 338.242H157.936C158.476 338.242 158.893 338.128 159.186 337.9C159.479 337.673 159.625 337.347 159.625 336.924C159.625 336.455 159.479 336.094 159.186 335.84C158.893 335.586 158.476 335.459 157.936 335.459H154.859V338.242ZM154.859 333.965H157.369C157.968 333.965 158.43 333.851 158.756 333.623C159.081 333.389 159.244 333.06 159.244 332.637C159.244 332.246 159.072 331.947 158.727 331.738C158.388 331.523 157.906 331.416 157.281 331.416H154.859V333.965ZM172.545 340H170.494V332.803H170.475L165.426 340H163.492V329.688H165.543V336.885H165.562L170.602 329.688H172.545V340ZM179.293 340.234C178.31 340.234 177.447 340.007 176.705 339.551C175.969 339.095 175.396 338.464 174.986 337.656C174.576 336.842 174.371 335.911 174.371 334.863C174.371 333.802 174.576 332.865 174.986 332.051C175.403 331.237 175.979 330.602 176.715 330.146C177.451 329.684 178.31 329.453 179.293 329.453C180.113 329.453 180.846 329.616 181.49 329.941C182.141 330.26 182.669 330.703 183.072 331.27C183.476 331.836 183.72 332.484 183.805 333.213H181.754C181.65 332.633 181.389 332.158 180.973 331.787C180.556 331.416 179.999 331.23 179.303 331.23C178.411 331.23 177.714 331.559 177.213 332.217C176.712 332.874 176.461 333.757 176.461 334.863C176.461 335.957 176.712 336.829 177.213 337.48C177.714 338.132 178.411 338.457 179.303 338.457C180.012 338.457 180.559 338.278 180.943 337.92C181.327 337.555 181.588 337.07 181.725 336.465H183.805C183.727 337.181 183.486 337.826 183.082 338.398C182.678 338.965 182.151 339.414 181.5 339.746C180.849 340.072 180.113 340.234 179.293 340.234ZM194.762 340.234C193.779 340.234 192.916 340.007 192.174 339.551C191.432 339.095 190.852 338.464 190.436 337.656C190.025 336.849 189.82 335.918 189.82 334.863C189.82 333.796 190.025 332.858 190.436 332.051C190.852 331.237 191.432 330.602 192.174 330.146C192.916 329.684 193.779 329.453 194.762 329.453C195.745 329.453 196.604 329.684 197.34 330.146C198.082 330.602 198.658 331.237 199.068 332.051C199.485 332.858 199.693 333.796 199.693 334.863C199.693 335.918 199.485 336.849 199.068 337.656C198.658 338.464 198.082 339.095 197.34 339.551C196.604 340.007 195.745 340.234 194.762 340.234ZM194.762 338.457C195.647 338.457 196.344 338.132 196.852 337.48C197.359 336.829 197.613 335.957 197.613 334.863C197.613 333.757 197.356 332.874 196.842 332.217C196.334 331.559 195.641 331.23 194.762 331.23C193.883 331.23 193.186 331.559 192.672 332.217C192.164 332.868 191.91 333.75 191.91 334.863C191.91 335.964 192.164 336.839 192.672 337.49C193.18 338.135 193.876 338.457 194.762 338.457ZM206.285 340V329.688H208.346V334.004H209.361L213.053 329.688H215.592L211.363 334.688L215.65 340H213.102L209.742 335.85H208.346V340H206.285ZM219.898 340.166C218.87 340.166 218.017 339.906 217.34 339.385C216.663 338.857 216.324 338.079 216.324 337.051C216.324 336.27 216.516 335.671 216.9 335.254C217.291 334.831 217.796 334.528 218.414 334.346C219.039 334.163 219.7 334.03 220.396 333.945C221.041 333.867 221.552 333.802 221.93 333.75C222.307 333.698 222.574 333.62 222.73 333.516C222.893 333.411 222.975 333.232 222.975 332.979V332.891C222.975 332.389 222.792 331.979 222.428 331.66C222.063 331.335 221.552 331.172 220.895 331.172C220.237 331.172 219.7 331.331 219.283 331.65C218.867 331.963 218.639 332.357 218.6 332.832H216.578C216.624 331.849 217.037 331.045 217.818 330.42C218.6 329.795 219.635 329.482 220.924 329.482C222.193 329.482 223.193 329.795 223.922 330.42C224.651 331.045 225.016 331.882 225.016 332.93V340H222.984V338.535H222.945C222.73 338.952 222.389 339.329 221.92 339.668C221.458 340 220.784 340.166 219.898 340.166ZM220.318 338.506C221.23 338.506 221.9 338.271 222.33 337.803C222.766 337.327 222.984 336.774 222.984 336.143V334.932C222.848 335.042 222.538 335.143 222.057 335.234C221.575 335.319 221.061 335.4 220.514 335.479C219.947 335.563 219.449 335.723 219.02 335.957C218.59 336.191 218.375 336.569 218.375 337.09C218.375 337.533 218.548 337.881 218.893 338.135C219.244 338.382 219.719 338.506 220.318 338.506ZM231.754 340.234C230.771 340.234 229.908 340.007 229.166 339.551C228.43 339.095 227.857 338.464 227.447 337.656C227.037 336.842 226.832 335.911 226.832 334.863C226.832 333.802 227.037 332.865 227.447 332.051C227.864 331.237 228.44 330.602 229.176 330.146C229.911 329.684 230.771 329.453 231.754 329.453C232.574 329.453 233.307 329.616 233.951 329.941C234.602 330.26 235.13 330.703 235.533 331.27C235.937 331.836 236.181 332.484 236.266 333.213H234.215C234.111 332.633 233.85 332.158 233.434 331.787C233.017 331.416 232.46 331.23 231.764 331.23C230.872 331.23 230.175 331.559 229.674 332.217C229.173 332.874 228.922 333.757 228.922 334.863C228.922 335.957 229.173 336.829 229.674 337.48C230.175 338.132 230.872 338.457 231.764 338.457C232.473 338.457 233.02 338.278 233.404 337.92C233.788 337.555 234.049 337.07 234.186 336.465H236.266C236.188 337.181 235.947 337.826 235.543 338.398C235.139 338.965 234.612 339.414 233.961 339.746C233.31 340.072 232.574 340.234 231.754 340.234ZM240.572 340V331.484H237.018V329.688H246.178V331.484H242.633V340H240.572ZM251.773 340.234C250.79 340.234 249.928 340.007 249.186 339.551C248.443 339.095 247.864 338.464 247.447 337.656C247.037 336.849 246.832 335.918 246.832 334.863C246.832 333.796 247.037 332.858 247.447 332.051C247.864 331.237 248.443 330.602 249.186 330.146C249.928 329.684 250.79 329.453 251.773 329.453C252.757 329.453 253.616 329.684 254.352 330.146C255.094 330.602 255.67 331.237 256.08 332.051C256.497 332.858 256.705 333.796 256.705 334.863C256.705 335.918 256.497 336.849 256.08 337.656C255.67 338.464 255.094 339.095 254.352 339.551C253.616 340.007 252.757 340.234 251.773 340.234ZM251.773 338.457C252.659 338.457 253.355 338.132 253.863 337.48C254.371 336.829 254.625 335.957 254.625 334.863C254.625 333.757 254.368 332.874 253.854 332.217C253.346 331.559 252.652 331.23 251.773 331.23C250.895 331.23 250.198 331.559 249.684 332.217C249.176 332.868 248.922 333.75 248.922 334.863C248.922 335.964 249.176 336.839 249.684 337.49C250.191 338.135 250.888 338.457 251.773 338.457ZM258.531 340V329.688H261.627L263.961 335.244C264.13 335.674 264.283 336.094 264.42 336.504C264.557 336.908 264.693 337.298 264.83 337.676C264.96 337.298 265.094 336.908 265.23 336.504C265.367 336.094 265.52 335.674 265.689 335.244L268.004 329.688H271.1V340H269.059V335.244C269.059 334.521 269.062 333.893 269.068 333.359C269.075 332.819 269.081 332.285 269.088 331.758C268.88 332.305 268.668 332.861 268.453 333.428C268.245 333.988 268.01 334.59 267.75 335.234L265.699 340H263.932L261.871 335.234C261.611 334.609 261.373 334.023 261.158 333.477C260.95 332.923 260.745 332.383 260.543 331.855C260.549 332.363 260.556 332.881 260.562 333.408C260.569 333.929 260.572 334.541 260.572 335.244V340H258.531ZM275.494 329.688V333.916H280.426V329.688H282.486V340H280.426V335.762H275.494V340H273.434V329.688H275.494ZM286.881 333.135H289.586C290.777 333.135 291.738 333.447 292.467 334.072C293.196 334.697 293.561 335.518 293.561 336.533C293.561 337.568 293.196 338.405 292.467 339.043C291.738 339.681 290.777 340 289.586 340H284.82V329.688H286.881V333.135ZM286.881 334.932V338.193H289.508C290.133 338.193 290.624 338.044 290.982 337.744C291.347 337.445 291.529 337.041 291.529 336.533C291.529 336.038 291.347 335.648 290.982 335.361C290.624 335.075 290.133 334.932 289.508 334.932H286.881ZM294.459 340V329.688H296.52V340H294.459ZM297.916 340L301.715 334.746L298.15 329.688H300.504L301.734 331.523C301.93 331.829 302.122 332.129 302.311 332.422C302.506 332.715 302.695 333.011 302.877 333.311C303.072 333.011 303.264 332.715 303.453 332.422C303.642 332.129 303.84 331.829 304.049 331.523L305.299 329.688H307.613L304.039 334.717L307.789 340H305.436L304 337.91C303.805 337.611 303.613 337.318 303.424 337.031C303.235 336.745 303.049 336.458 302.867 336.172C302.678 336.458 302.486 336.745 302.291 337.031C302.102 337.318 301.91 337.611 301.715 337.91L300.25 340H297.916ZM61.7539 360V349.688H64.8496L67.1836 355.244C67.3529 355.674 67.5059 356.094 67.6426 356.504C67.7793 356.908 67.916 357.298 68.0527 357.676C68.1829 357.298 68.3164 356.908 68.4531 356.504C68.5898 356.094 68.7428 355.674 68.9121 355.244L71.2266 349.688H74.3223V360H72.2812V355.244C72.2812 354.521 72.2845 353.893 72.291 353.359C72.2975 352.819 72.304 352.285 72.3105 351.758C72.1022 352.305 71.8906 352.861 71.6758 353.428C71.4674 353.988 71.2331 354.59 70.9727 355.234L68.9219 360H67.1543L65.0938 355.234C64.8333 354.609 64.5957 354.023 64.3809 353.477C64.1725 352.923 63.9674 352.383 63.7656 351.855C63.7721 352.363 63.7786 352.881 63.7852 353.408C63.7917 353.929 63.7949 354.541 63.7949 355.244V360H61.7539ZM79.8008 360.166C78.7721 360.166 77.9193 359.906 77.2422 359.385C76.5651 358.857 76.2266 358.079 76.2266 357.051C76.2266 356.27 76.4186 355.671 76.8027 355.254C77.1934 354.831 77.6979 354.528 78.3164 354.346C78.9414 354.163 79.6022 354.03 80.2988 353.945C80.9434 353.867 81.4544 353.802 81.832 353.75C82.2096 353.698 82.4766 353.62 82.6328 353.516C82.7956 353.411 82.877 353.232 82.877 352.979V352.891C82.877 352.389 82.6947 351.979 82.3301 351.66C81.9655 351.335 81.4544 351.172 80.7969 351.172C80.1393 351.172 79.6022 351.331 79.1855 351.65C78.7689 351.963 78.541 352.357 78.502 352.832H76.4805C76.526 351.849 76.9395 351.045 77.7207 350.42C78.502 349.795 79.5371 349.482 80.8262 349.482C82.0957 349.482 83.0951 349.795 83.8242 350.42C84.5534 351.045 84.918 351.882 84.918 352.93V360H82.8867V358.535H82.8477C82.6328 358.952 82.291 359.329 81.8223 359.668C81.36 360 80.6862 360.166 79.8008 360.166ZM80.2207 358.506C81.1322 358.506 81.8027 358.271 82.2324 357.803C82.6686 357.327 82.8867 356.774 82.8867 356.143V354.932C82.75 355.042 82.4408 355.143 81.959 355.234C81.4772 355.319 80.9629 355.4 80.416 355.479C79.8496 355.563 79.3516 355.723 78.9219 355.957C78.4922 356.191 78.2773 356.569 78.2773 357.09C78.2773 357.533 78.4499 357.881 78.7949 358.135C79.1465 358.382 79.6217 358.506 80.2207 358.506ZM87.2422 364.082V349.688H89.2637V351.172H89.293C89.6185 350.605 90.0645 350.182 90.6309 349.902C91.1973 349.622 91.8158 349.482 92.4863 349.482C93.3717 349.482 94.1497 349.71 94.8203 350.166C95.4909 350.615 96.0117 351.243 96.3828 352.051C96.7604 352.852 96.9492 353.783 96.9492 354.844C96.9492 355.905 96.7637 356.839 96.3926 357.646C96.0215 358.447 95.5007 359.076 94.8301 359.531C94.1595 359.98 93.375 360.205 92.4766 360.205C91.806 360.205 91.2005 360.059 90.6602 359.766C90.1198 359.473 89.6771 359.033 89.332 358.447H89.3027V364.082H87.2422ZM92.0566 358.428C92.89 358.428 93.5638 358.122 94.0781 357.51C94.599 356.898 94.8594 356.009 94.8594 354.844C94.8594 353.678 94.599 352.79 94.0781 352.178C93.5638 351.559 92.89 351.25 92.0566 351.25C91.1777 351.25 90.4746 351.579 89.9473 352.236C89.4264 352.887 89.166 353.757 89.166 354.844C89.166 355.924 89.4264 356.794 89.9473 357.451C90.4746 358.102 91.1777 358.428 92.0566 358.428ZM98.7656 349.688H100.826V358.154H104.605V349.688H106.637V358.154H110.406V349.688H112.477V360H98.7656V349.688ZM114.801 364.082V349.688H116.822V351.172H116.852C117.177 350.605 117.623 350.182 118.189 349.902C118.756 349.622 119.374 349.482 120.045 349.482C120.93 349.482 121.708 349.71 122.379 350.166C123.049 350.615 123.57 351.243 123.941 352.051C124.319 352.852 124.508 353.783 124.508 354.844C124.508 355.905 124.322 356.839 123.951 357.646C123.58 358.447 123.059 359.076 122.389 359.531C121.718 359.98 120.934 360.205 120.035 360.205C119.365 360.205 118.759 360.059 118.219 359.766C117.678 359.473 117.236 359.033 116.891 358.447H116.861V364.082H114.801ZM119.615 358.428C120.449 358.428 121.122 358.122 121.637 357.51C122.158 356.898 122.418 356.009 122.418 354.844C122.418 353.678 122.158 352.79 121.637 352.178C121.122 351.559 120.449 351.25 119.615 351.25C118.736 351.25 118.033 351.579 117.506 352.236C116.985 352.887 116.725 353.757 116.725 354.844C116.725 355.924 116.985 356.794 117.506 357.451C118.033 358.102 118.736 358.428 119.615 358.428ZM126.07 364.082V362.344H127.184C127.509 362.344 127.773 362.249 127.975 362.061C128.183 361.878 128.365 361.576 128.521 361.152L128.99 359.932L125.006 349.688H127.213L129.273 355.342C129.41 355.726 129.544 356.113 129.674 356.504C129.804 356.888 129.931 357.272 130.055 357.656C130.178 357.272 130.305 356.888 130.436 356.504C130.572 356.113 130.709 355.726 130.846 355.342L132.877 349.688H135.055L130.367 361.807C129.788 363.324 128.792 364.082 127.379 364.082H126.07ZM139.381 360V351.484H135.826V349.688H144.986V351.484H141.441V360H139.381ZM149.195 360.166C148.167 360.166 147.314 359.906 146.637 359.385C145.96 358.857 145.621 358.079 145.621 357.051C145.621 356.27 145.813 355.671 146.197 355.254C146.588 354.831 147.092 354.528 147.711 354.346C148.336 354.163 148.997 354.03 149.693 353.945C150.338 353.867 150.849 353.802 151.227 353.75C151.604 353.698 151.871 353.62 152.027 353.516C152.19 353.411 152.271 353.232 152.271 352.979V352.891C152.271 352.389 152.089 351.979 151.725 351.66C151.36 351.335 150.849 351.172 150.191 351.172C149.534 351.172 148.997 351.331 148.58 351.65C148.163 351.963 147.936 352.357 147.896 352.832H145.875C145.921 351.849 146.334 351.045 147.115 350.42C147.896 349.795 148.932 349.482 150.221 349.482C151.49 349.482 152.49 349.795 153.219 350.42C153.948 351.045 154.312 351.882 154.312 352.93V360H152.281V358.535H152.242C152.027 358.952 151.686 359.329 151.217 359.668C150.755 360 150.081 360.166 149.195 360.166ZM149.615 358.506C150.527 358.506 151.197 358.271 151.627 357.803C152.063 357.327 152.281 356.774 152.281 356.143V354.932C152.145 355.042 151.835 355.143 151.354 355.234C150.872 355.319 150.357 355.4 149.811 355.479C149.244 355.563 148.746 355.723 148.316 355.957C147.887 356.191 147.672 356.569 147.672 357.09C147.672 357.533 147.844 357.881 148.189 358.135C148.541 358.382 149.016 358.506 149.615 358.506ZM155.709 360L159.508 354.746L155.943 349.688H158.297L159.527 351.523C159.723 351.829 159.915 352.129 160.104 352.422C160.299 352.715 160.488 353.011 160.67 353.311C160.865 353.011 161.057 352.715 161.246 352.422C161.435 352.129 161.633 351.829 161.842 351.523L163.092 349.688H165.406L161.832 354.717L165.582 360H163.229L161.793 357.91C161.598 357.611 161.406 357.318 161.217 357.031C161.028 356.745 160.842 356.458 160.66 356.172C160.471 356.458 160.279 356.745 160.084 357.031C159.895 357.318 159.703 357.611 159.508 357.91L158.043 360H155.709ZM180.699 349.688V360H178.639V351.533H173.814V360H171.754V349.688H180.699ZM187.457 360.234C186.474 360.234 185.611 360.007 184.869 359.551C184.127 359.095 183.548 358.464 183.131 357.656C182.721 356.849 182.516 355.918 182.516 354.863C182.516 353.796 182.721 352.858 183.131 352.051C183.548 351.237 184.127 350.602 184.869 350.146C185.611 349.684 186.474 349.453 187.457 349.453C188.44 349.453 189.299 349.684 190.035 350.146C190.777 350.602 191.354 351.237 191.764 352.051C192.18 352.858 192.389 353.796 192.389 354.863C192.389 355.918 192.18 356.849 191.764 357.656C191.354 358.464 190.777 359.095 190.035 359.551C189.299 360.007 188.44 360.234 187.457 360.234ZM187.457 358.457C188.342 358.457 189.039 358.132 189.547 357.48C190.055 356.829 190.309 355.957 190.309 354.863C190.309 353.757 190.051 352.874 189.537 352.217C189.029 351.559 188.336 351.23 187.457 351.23C186.578 351.23 185.882 351.559 185.367 352.217C184.859 352.868 184.605 353.75 184.605 354.863C184.605 355.964 184.859 356.839 185.367 357.49C185.875 358.135 186.572 358.457 187.457 358.457ZM203.639 363.721V360.234C202.63 360.221 201.734 359.987 200.953 359.531C200.178 359.069 199.57 358.438 199.127 357.637C198.691 356.829 198.473 355.902 198.473 354.854C198.473 353.805 198.691 352.878 199.127 352.07C199.57 351.263 200.178 350.628 200.953 350.166C201.734 349.704 202.63 349.466 203.639 349.453V345.449H205.709V349.453C206.718 349.466 207.61 349.704 208.385 350.166C209.166 350.628 209.775 351.263 210.211 352.07C210.654 352.878 210.875 353.805 210.875 354.854C210.875 355.902 210.654 356.829 210.211 357.637C209.775 358.438 209.166 359.069 208.385 359.531C207.61 359.987 206.718 360.221 205.709 360.234V363.721H203.639ZM205.709 358.438C206.646 358.438 207.395 358.115 207.955 357.471C208.515 356.82 208.795 355.951 208.795 354.863C208.795 353.77 208.515 352.894 207.955 352.236C207.395 351.579 206.646 351.25 205.709 351.25V358.438ZM203.639 358.438V351.25C202.701 351.25 201.956 351.579 201.402 352.236C200.849 352.894 200.572 353.77 200.572 354.863C200.572 355.951 200.849 356.82 201.402 357.471C201.956 358.115 202.701 358.438 203.639 358.438ZM215.953 360.166C214.924 360.166 214.072 359.906 213.395 359.385C212.717 358.857 212.379 358.079 212.379 357.051C212.379 356.27 212.571 355.671 212.955 355.254C213.346 354.831 213.85 354.528 214.469 354.346C215.094 354.163 215.755 354.03 216.451 353.945C217.096 353.867 217.607 353.802 217.984 353.75C218.362 353.698 218.629 353.62 218.785 353.516C218.948 353.411 219.029 353.232 219.029 352.979V352.891C219.029 352.389 218.847 351.979 218.482 351.66C218.118 351.335 217.607 351.172 216.949 351.172C216.292 351.172 215.755 351.331 215.338 351.65C214.921 351.963 214.693 352.357 214.654 352.832H212.633C212.678 351.849 213.092 351.045 213.873 350.42C214.654 349.795 215.689 349.482 216.979 349.482C218.248 349.482 219.247 349.795 219.977 350.42C220.706 351.045 221.07 351.882 221.07 352.93V360H219.039V358.535H219C218.785 358.952 218.443 359.329 217.975 359.668C217.512 360 216.839 360.166 215.953 360.166ZM216.373 358.506C217.285 358.506 217.955 358.271 218.385 357.803C218.821 357.327 219.039 356.774 219.039 356.143V354.932C218.902 355.042 218.593 355.143 218.111 355.234C217.63 355.319 217.115 355.4 216.568 355.479C216.002 355.563 215.504 355.723 215.074 355.957C214.645 356.191 214.43 356.569 214.43 357.09C214.43 357.533 214.602 357.881 214.947 358.135C215.299 358.382 215.774 358.506 216.373 358.506ZM225.455 349.688V353.916H230.387V349.688H232.447V360H230.387V355.762H225.455V360H223.395V349.688H225.455ZM233.834 363.145V358.154H234.713C235.012 357.881 235.257 357.559 235.445 357.188C235.634 356.81 235.787 356.335 235.904 355.762C236.021 355.189 236.119 354.463 236.197 353.584L236.539 349.688H243.902V358.154H245.572V363.145H243.551V360H235.885V363.145H233.834ZM236.959 358.154H241.891V351.514H238.365L238.16 353.584C238.069 354.626 237.936 355.527 237.76 356.289C237.59 357.051 237.324 357.673 236.959 358.154ZM251.422 360.234C250.439 360.234 249.576 360.007 248.834 359.551C248.092 359.095 247.512 358.464 247.096 357.656C246.686 356.849 246.48 355.918 246.48 354.863C246.48 353.796 246.686 352.858 247.096 352.051C247.512 351.237 248.092 350.602 248.834 350.146C249.576 349.684 250.439 349.453 251.422 349.453C252.405 349.453 253.264 349.684 254 350.146C254.742 350.602 255.318 351.237 255.729 352.051C256.145 352.858 256.354 353.796 256.354 354.863C256.354 355.918 256.145 356.849 255.729 357.656C255.318 358.464 254.742 359.095 254 359.551C253.264 360.007 252.405 360.234 251.422 360.234ZM251.422 358.457C252.307 358.457 253.004 358.132 253.512 357.48C254.02 356.829 254.273 355.957 254.273 354.863C254.273 353.757 254.016 352.874 253.502 352.217C252.994 351.559 252.301 351.23 251.422 351.23C250.543 351.23 249.846 351.559 249.332 352.217C248.824 352.868 248.57 353.75 248.57 354.863C248.57 355.964 248.824 356.839 249.332 357.49C249.84 358.135 250.536 358.457 251.422 358.457ZM258.18 360V349.688H261.275L263.609 355.244C263.779 355.674 263.932 356.094 264.068 356.504C264.205 356.908 264.342 357.298 264.479 357.676C264.609 357.298 264.742 356.908 264.879 356.504C265.016 356.094 265.169 355.674 265.338 355.244L267.652 349.688H270.748V360H268.707V355.244C268.707 354.521 268.71 353.893 268.717 353.359C268.723 352.819 268.73 352.285 268.736 351.758C268.528 352.305 268.316 352.861 268.102 353.428C267.893 353.988 267.659 354.59 267.398 355.234L265.348 360H263.58L261.52 355.234C261.259 354.609 261.021 354.023 260.807 353.477C260.598 352.923 260.393 352.383 260.191 351.855C260.198 352.363 260.204 352.881 260.211 353.408C260.217 353.929 260.221 354.541 260.221 355.244V360H258.18ZM276.227 360.166C275.198 360.166 274.345 359.906 273.668 359.385C272.991 358.857 272.652 358.079 272.652 357.051C272.652 356.27 272.844 355.671 273.229 355.254C273.619 354.831 274.124 354.528 274.742 354.346C275.367 354.163 276.028 354.03 276.725 353.945C277.369 353.867 277.88 353.802 278.258 353.75C278.635 353.698 278.902 353.62 279.059 353.516C279.221 353.411 279.303 353.232 279.303 352.979V352.891C279.303 352.389 279.12 351.979 278.756 351.66C278.391 351.335 277.88 351.172 277.223 351.172C276.565 351.172 276.028 351.331 275.611 351.65C275.195 351.963 274.967 352.357 274.928 352.832H272.906C272.952 351.849 273.365 351.045 274.146 350.42C274.928 349.795 275.963 349.482 277.252 349.482C278.521 349.482 279.521 349.795 280.25 350.42C280.979 351.045 281.344 351.882 281.344 352.93V360H279.312V358.535H279.273C279.059 358.952 278.717 359.329 278.248 359.668C277.786 360 277.112 360.166 276.227 360.166ZM276.646 358.506C277.558 358.506 278.229 358.271 278.658 357.803C279.094 357.327 279.312 356.774 279.312 356.143V354.932C279.176 355.042 278.867 355.143 278.385 355.234C277.903 355.319 277.389 355.4 276.842 355.479C276.275 355.563 275.777 355.723 275.348 355.957C274.918 356.191 274.703 356.569 274.703 357.09C274.703 357.533 274.876 357.881 275.221 358.135C275.572 358.382 276.048 358.506 276.646 358.506ZM283.668 360V349.688H286.764L289.098 355.244C289.267 355.674 289.42 356.094 289.557 356.504C289.693 356.908 289.83 357.298 289.967 357.676C290.097 357.298 290.23 356.908 290.367 356.504C290.504 356.094 290.657 355.674 290.826 355.244L293.141 349.688H296.236V360H294.195V355.244C294.195 354.521 294.199 353.893 294.205 353.359C294.212 352.819 294.218 352.285 294.225 351.758C294.016 352.305 293.805 352.861 293.59 353.428C293.382 353.988 293.147 354.59 292.887 355.234L290.836 360H289.068L287.008 355.234C286.747 354.609 286.51 354.023 286.295 353.477C286.087 352.923 285.882 352.383 285.68 351.855C285.686 352.363 285.693 352.881 285.699 353.408C285.706 353.929 285.709 354.541 285.709 355.244V360H283.668Z" fill="black"/>
</svg>
